<svg xmlns="http://www.w3.org/2000/svg" viewBox="0 0 1200 800" role="img" aria-label="CASPER"><defs><linearGradient id="bg" x2="1" y2="1"><stop stop-color="#87a5b3"/><stop offset="1" stop-color="#25485b"/></linearGradient><linearGradient id="glass" x2="0" y2="1"><stop stop-color="#ffffff" stop-opacity=".48"/><stop offset="1" stop-color="#ffffff" stop-opacity=".04"/></linearGradient></defs><rect width="1200" height="800" fill="url(#bg)"/><circle cx="970" cy="140" r="310" fill="#fff" opacity=".08"/><circle cx="970" cy="140" r="200" fill="none" stroke="#fff" opacity=".22"/><path d="M0 585 L1200 360 V800 H0" fill="#061f34" opacity=".32"/><ellipse cx="610" cy="627" rx="450" ry="45" fill="#061a2d" opacity=".35"/><path d="M165 505l75-47 120-135q20-25 63-27h364q41 0 70 32l103 123 80 40q28 15 26 48l-8 57H149l-9-51q-7-28 25-40z" fill="#e7eef2" stroke="#b0c6d2" stroke-width="8"/><path d="M370 332h390q30 0 46 21l75 95H284z" fill="#244b66"/><path d="M555 333v116M245 466h705" stroke="#bfd2db" stroke-width="7"/><circle cx="335" cy="588" r="68" fill="#162736"/><circle cx="335" cy="588" r="33" fill="#8699a5"/><circle cx="872" cy="588" r="68" fill="#162736"/><circle cx="872" cy="588" r="33" fill="#8699a5"/><path d="M947 470l95 24-5 25h-73" fill="#ffdfb3"/><text x="80" y="730" fill="#fff" font-family="Arial,sans-serif" font-size="44" font-weight="700" letter-spacing="4">CASPER</text></svg>